<?xml version="1.0" encoding="utf-8"?>
<!-- Generator: Adobe Illustrator 25.2.3, SVG Export Plug-In . SVG Version: 6.00 Build 0)  -->
<svg version="1.1" id="Layer_1" xmlns="http://www.w3.org/2000/svg" xmlns:xlink="http://www.w3.org/1999/xlink" x="0px" y="0px"
	 viewBox="0 0 28.7 30.9" style="enable-background:new 0 0 28.7 30.9;" xml:space="preserve">
<style type="text/css">
	.st0{fill:#6D28D9;}
</style>
<g id="Layer_2_1_">
	<g id="Layer_1-2">
		<path class="st0" d="M22.6,30.8C22.5,30.7,22.5,30.7,22.6,30.8v-5.3c0-0.1,0-0.1,0-0.2s0,0,0,0l0,0l-0.1,0.1
			c-1.1,1.9-2.8,3.4-4.8,4.3c-1,0.5-2.1,0.8-3.2,1c-0.9,0.1-1.7,0.2-2.6,0.1c-1.3-0.1-2.5-0.4-3.7-0.8c-1.5-0.6-2.8-1.4-3.9-2.5
			C3,26.3,2,24.6,1.6,22.9c-0.2-0.6-0.3-1.2-0.3-1.9c0-0.7,0-1.5,0.1-2.2c0.1-0.5,0.2-1,0.3-1.5c0,0,0-0.1,0-0.2c0,0.3,0,0.5,0,0.7
			c0,0.6,0,1.2,0.1,1.8c0.4,2.7,1.7,5.2,3.7,7c1.3,1.2,2.8,2,4.5,2.5c0.5,0.1,1.1,0.2,1.6,0.3c0.5,0,1,0,1.6,0
			c2.1-0.1,4.1-0.9,5.7-2.2c1.8-1.4,3-3.4,3.4-5.5c0.2-0.8,0.2-1.6,0.2-2.5c-0.1-2-0.9-4-2.3-5.5c-1.1-1.3-2.6-2.2-4.3-2.6L15.6,11
			l0,0l0,0l0.1,0.1c0.3,0.4,0.5,0.9,0.4,1.4c0,0.4-0.1,0.7-0.3,1c-0.1,0.2-0.2,0.3-0.3,0.5c0,0,0,0.1-0.1,0.1c0,0,0,0,0,0.1
			c0,0,0,0,0,0h0.1c1.3,0.4,2.4,1.3,3,2.5c0.4,0.7,0.6,1.5,0.7,2.3c0.1,1.6-0.4,3.3-1.4,4.5c-0.9,1.1-2.1,1.9-3.5,2.2
			c-0.6,0.2-1.2,0.2-1.8,0.2c-1.2,0-2.3-0.3-3.4-0.8c-1.6-0.8-2.9-2.2-3.6-3.8c-0.5-1-0.7-2.1-0.7-3.3c0-1.3,0.3-2.6,0.8-3.8
			c0.9-1.8,2.3-3.3,4.1-4.2c0.8-0.4,1.6-0.7,2.4-0.8l0.6-0.1h0.1l0,0l0,0l-0.1-0.1L12,9l-0.2-0.1c-0.2-0.1-0.3-0.2-0.2-0.5
			S11.9,8,12,7.7c0.4-0.8,0.8-1.6,1.2-2.4c0,0,0-0.1,0-0.1C13.2,5.1,13.4,5,13.5,5h0.1l0,0l0,0l-0.1-0.1c-0.2-0.1-0.4-0.3-0.6-0.4
			c-0.4-0.2-0.7-0.4-1.1-0.6c0,0-0.1,0-0.1-0.1c-0.1-0.1-0.2-0.2-0.1-0.3c0,0,0,0,0,0c0,0,0-0.1,0.1-0.1c0.5-1,1-2,1.5-3V0.3
			c0.1-0.1,0.2-0.2,0.4-0.2c0.2,0,0.4,0,0.6,0.1c0.5,0.1,1,0.3,1.4,0.6c0.4,0.4,0.6,1,0.5,1.6c0,0.4-0.1,0.7-0.3,1
			c-0.3,0.5-0.6,1.1-1,1.5l-0.1,0.1c0,0,0,0.1,0,0.1l0.1,0.1c0.3,0.1,0.6,0.4,0.8,0.6c0.4,0.4,0.6,1,0.5,1.5c0,0.3-0.1,0.7-0.3,1
			c-0.2,0.3-0.3,0.6-0.5,0.9c-0.1,0.2-0.1,0.2,0.1,0.2c0.5,0.1,1,0.2,1.5,0.3c1.7,0.5,3.2,1.5,4.4,2.7c0.4,0.5,0.8,1,1.2,1.6
			c0,0,0,0.1,0.1,0.1s0-0.1,0-0.1V9.7c0-0.3,0-0.5,0-0.8c0.1-0.9,0.3-1.9,0.7-2.7c0.4-0.8,0.9-1.6,1.5-2.2l3.8-3.8c0,0,0,0,0.1-0.1
			c0,0,0,0,0.1,0v21.2c0,0.8-0.1,1.7-0.4,2.5c-0.4,1.2-1,2.2-1.9,3.1c-0.7,0.7-1.4,1.4-2.1,2.1l-1.6,1.6
			C22.7,30.7,22.6,30.7,22.6,30.8z M12.3,14.3c-0.1,0-0.1-0.1-0.2-0.1c-0.1,0-0.2-0.1-0.3-0.2c-0.1-0.1-0.2-0.3-0.2-0.5
			c0-0.1,0-0.1,0.1-0.2l0.3-0.5c0.2-0.3,0.4-0.6,0.5-0.9c0.1-0.2,0.2-0.4,0.2-0.6c0-0.1,0-0.1,0.1-0.2c0,0,0-0.1-0.1-0.1h-0.1
			c-0.2,0-0.4,0-0.6,0.1c-0.3,0.1-0.7,0.2-1,0.4c-0.7,0.3-1.3,0.7-1.9,1.2c-0.8,0.7-1.5,1.5-2,2.4c-0.5,0.9-0.7,1.8-0.8,2.8
			c0,0.6,0,1.2,0.2,1.8c0.3,1.3,1,2.5,1.9,3.4c1.2,1.2,2.8,1.7,4.4,1.6c0.5,0,1-0.1,1.5-0.3c0.7-0.2,1.4-0.6,2-1.2
			c1.2-1.2,1.7-2.9,1.4-4.5c-0.2-1-0.7-1.8-1.5-2.4c-0.7-0.5-1.5-0.8-2.4-0.8c-0.3,0-0.6,0.1-0.8,0.2c-0.6,0.2-1.1,0.6-1.4,1.1
			c-0.3,0.4-0.5,0.9-0.5,1.4c0,0.2,0,0.5,0.1,0.7c0,0,0,0,0.1,0.1s0-0.1,0-0.2c0-0.1,0.1-0.2,0.1-0.3c0.3-0.7,0.9-1.2,1.6-1.4
			c0.6-0.2,1.3-0.1,1.8,0.3c0.5,0.3,0.8,0.8,1,1.4c0.1,0.3,0.1,0.7,0.1,1c-0.1,0.6-0.4,1.1-0.9,1.4c-0.9,0.7-2.1,0.8-3.1,0.4
			c-0.7-0.3-1.3-0.8-1.7-1.5C9.5,19.2,9.4,18,9.7,17c0.3-0.9,0.9-1.6,1.6-2.1c0.3-0.2,0.5-0.3,0.8-0.4
			C12.2,14.4,12.3,14.4,12.3,14.3z M24,18.1L24,18.1V27c0,0.1,0,0.1,0,0.2 M24.1,27.2L24.1,27.2c0.5-0.5,0.9-0.9,1.3-1.3
			c0.7-0.7,1.1-1.5,1.5-2.4c0.2-0.7,0.4-1.4,0.4-2.1V3.8l0,0c0,0,0,0,0,0l-0.1,0.1c-0.4,0.4-0.9,0.8-1.3,1.3C24.7,6.3,24,7.9,24,9.5
			L24.1,27.2z"/>
		<path class="st0" d="M5.5,10.9c0,0.2-0.1,0.3-0.3,0.3c0,0,0,0,0,0c-0.2,0-0.3-0.1-0.3-0.2c0-0.2,0.1-0.3,0.2-0.3c0,0,0.1,0,0.1,0
			C5.4,10.6,5.5,10.8,5.5,10.9z"/>
		<path class="st0" d="M2.2,13.8c0,0.2-0.1,0.3-0.3,0.3c0,0,0,0,0,0c-0.2,0-0.3-0.1-0.3-0.3c0,0,0,0,0,0c0-0.2,0.1-0.3,0.3-0.3
			c0,0,0,0,0,0C2.1,13.5,2.2,13.6,2.2,13.8C2.2,13.8,2.2,13.8,2.2,13.8z"/>
		<path class="st0" d="M7.8,7C8,7,8.1,7.1,8.1,7.3v0c0,0.2-0.1,0.3-0.3,0.3c-0.2,0-0.3-0.1-0.3-0.3C7.5,7.1,7.7,7,7.8,7
			C7.8,7,7.8,7,7.8,7z"/>
		<path class="st0" d="M3.3,11.4c0.2,0,0.3,0.1,0.3,0.3c0,0,0,0,0,0c0,0.2-0.1,0.3-0.3,0.3c-0.2,0-0.3-0.2-0.2-0.3
			C3.1,11.5,3.2,11.4,3.3,11.4z"/>
		<path class="st0" d="M3.2,11c-0.2,0-0.3-0.1-0.3-0.3c0-0.2,0.1-0.3,0.3-0.3c0,0,0,0,0,0c0.2,0,0.3,0.1,0.3,0.3
			C3.5,10.9,3.3,11,3.2,11C3.2,11,3.2,11,3.2,11z"/>
		<path class="st0" d="M0.7,20c-0.2,0-0.3-0.1-0.3-0.2s0.1-0.3,0.2-0.3c0,0,0.1,0,0.1,0c0.2,0,0.3,0.1,0.3,0.3c0,0,0,0,0,0
			C1,19.9,0.9,20,0.7,20z"/>
		<path class="st0" d="M2.6,13.1c0,0.2-0.1,0.3-0.3,0.3c-0.2,0-0.3-0.1-0.3-0.3c0-0.2,0.2-0.3,0.3-0.2C2.5,12.8,2.6,12.9,2.6,13.1z"
			/>
		<path class="st0" d="M4.1,10.1c0,0.2-0.1,0.3-0.3,0.3c0,0,0,0,0,0c-0.2,0-0.3-0.1-0.3-0.3c0,0,0,0,0,0c0-0.2,0.1-0.3,0.3-0.3
			C3.9,9.8,4,9.9,4.1,10.1C4.1,10.1,4.1,10.1,4.1,10.1z"/>
		<path class="st0" d="M6.1,10.4c0,0.2-0.1,0.3-0.3,0.3c-0.2,0-0.3-0.1-0.3-0.3c0-0.2,0.1-0.3,0.3-0.3c0,0,0,0,0,0
			C6,10.1,6.1,10.2,6.1,10.4C6.1,10.4,6.1,10.4,6.1,10.4z"/>
		<path class="st0" d="M4.8,10.5c0,0.2-0.1,0.3-0.3,0.3c0,0,0,0,0,0c-0.2,0-0.3-0.1-0.3-0.3c0,0,0,0,0,0c0-0.2,0.1-0.3,0.3-0.3
			c0,0,0,0,0,0C4.6,10.2,4.8,10.3,4.8,10.5C4.8,10.5,4.8,10.5,4.8,10.5z"/>
		<path class="st0" d="M6.6,10.5c0.2,0,0.3,0.1,0.3,0.3c0,0.2-0.1,0.3-0.3,0.3c-0.2,0-0.3-0.1-0.3-0.3c0,0,0,0,0,0
			C6.3,10.7,6.4,10.5,6.6,10.5C6.5,10.5,6.5,10.5,6.6,10.5z"/>
		<path class="st0" d="M1.6,17.2c0,0.2-0.1,0.3-0.3,0.3c-0.2,0-0.3-0.1-0.3-0.3c0-0.2,0.1-0.3,0.3-0.3c0,0,0,0,0,0
			C1.4,16.9,1.6,17,1.6,17.2C1.6,17.2,1.6,17.2,1.6,17.2z"/>
		<path class="st0" d="M7.9,8.4c-0.2,0-0.3-0.1-0.3-0.3c0,0,0,0,0,0c0-0.2,0.1-0.3,0.3-0.3c0,0,0,0,0,0C8,7.8,8.2,8,8.2,8.1l0,0
			C8.2,8.3,8,8.4,7.9,8.4z"/>
		<path class="st0" d="M0.8,15.7c0.2,0,0.3,0.1,0.3,0.3c0,0.2-0.2,0.3-0.3,0.2c-0.1,0-0.2-0.1-0.2-0.2C0.6,15.9,0.7,15.7,0.8,15.7z"
			/>
		<path class="st0" d="M6.8,8.5c0-0.2,0.1-0.3,0.3-0.3c0,0,0,0,0,0c0.2,0,0.3,0.1,0.3,0.3c0,0,0,0,0,0c0,0.2-0.1,0.3-0.3,0.3
			c0,0,0,0,0,0C7,8.8,6.8,8.7,6.8,8.5z"/>
		<path class="st0" d="M3,13.7c-0.2,0-0.3-0.2-0.2-0.3c0-0.1,0.1-0.2,0.2-0.2c0.2,0,0.3,0.2,0.2,0.3C3.2,13.6,3.1,13.7,3,13.7z"/>
		<path class="st0" d="M7.5,9.4c0,0.2-0.1,0.3-0.2,0.3c-0.2,0-0.3-0.1-0.3-0.2c0,0,0-0.1,0-0.1c0-0.2,0.1-0.3,0.3-0.3
			C7.3,9.1,7.5,9.2,7.5,9.4C7.5,9.4,7.5,9.4,7.5,9.4z"/>
		<path class="st0" d="M4.2,12.9c0.2,0,0.3,0.1,0.3,0.3c0,0.2-0.1,0.3-0.3,0.3c-0.2,0-0.3-0.1-0.3-0.3c0,0,0,0,0,0
			C3.9,13,4,12.9,4.2,12.9z"/>
		<path class="st0" d="M6.8,9.9c0,0.2-0.1,0.3-0.3,0.3c-0.2,0-0.3-0.1-0.3-0.3c0-0.2,0.1-0.3,0.3-0.3c0,0,0,0,0,0
			C6.6,9.6,6.8,9.7,6.8,9.9C6.8,9.9,6.8,9.9,6.8,9.9z"/>
		<path class="st0" d="M3.8,12.8c0,0.2-0.1,0.3-0.3,0.3c-0.2,0-0.3-0.1-0.3-0.3c0-0.2,0.1-0.3,0.3-0.3C3.7,12.5,3.8,12.6,3.8,12.8
			C3.8,12.7,3.8,12.8,3.8,12.8z"/>
		<path class="st0" d="M4.7,12.2c0.2,0,0.3,0.1,0.3,0.3c0,0,0,0,0,0c0,0.2-0.1,0.3-0.3,0.3c-0.2,0-0.3-0.1-0.3-0.3c0,0,0,0,0,0
			C4.4,12.4,4.6,12.2,4.7,12.2C4.7,12.2,4.7,12.2,4.7,12.2z"/>
		<path class="st0" d="M5.4,12.6c0.2,0,0.3,0.1,0.3,0.3c0,0.2-0.1,0.3-0.3,0.3c-0.2,0-0.3-0.1-0.3-0.3C5.1,12.8,5.3,12.6,5.4,12.6z"
			/>
		<path class="st0" d="M5.6,11.9c0,0.2-0.1,0.3-0.3,0.3c0,0,0,0,0,0c-0.2,0-0.3-0.1-0.3-0.3c0,0,0,0,0,0c0-0.2,0.1-0.3,0.3-0.3
			C5.5,11.6,5.6,11.7,5.6,11.9C5.6,11.9,5.6,11.9,5.6,11.9z"/>
		<path class="st0" d="M7.1,7.9c-0.2,0-0.3-0.1-0.3-0.3c0-0.2,0.1-0.3,0.3-0.3c0.2,0,0.3,0.1,0.3,0.3C7.4,7.8,7.3,7.9,7.1,7.9
			C7.1,7.9,7.1,7.9,7.1,7.9z"/>
		<path class="st0" d="M6.2,11.3c0,0.2-0.1,0.3-0.3,0.3c0,0,0,0,0,0c-0.2,0-0.3-0.1-0.3-0.3c0,0,0,0,0,0c0-0.2,0.1-0.3,0.3-0.3
			c0,0,0,0,0,0C6.1,11,6.2,11.2,6.2,11.3z"/>
		<path class="st0" d="M6.7,9c0,0.2-0.1,0.3-0.3,0.3c0,0,0,0,0,0C6.3,9.3,6.1,9.2,6.1,9c0-0.2,0.1-0.3,0.3-0.3c0,0,0,0,0,0
			C6.6,8.7,6.7,8.8,6.7,9C6.7,9,6.7,9,6.7,9z"/>
		<path class="st0" d="M5.8,9.7c-0.2,0-0.3-0.1-0.3-0.2c0-0.2,0.1-0.3,0.2-0.3c0,0,0.1,0,0.1,0C5.9,9.2,6,9.3,6,9.5
			C6,9.6,5.9,9.7,5.8,9.7z"/>
		<path class="st0" d="M6.7,8c0,0.2-0.1,0.3-0.3,0.3C6.2,8.3,6.1,8.2,6.1,8c0-0.2,0.1-0.3,0.3-0.3S6.7,7.8,6.7,8C6.7,8,6.7,8,6.7,8z
			"/>
		<path class="st0" d="M9.7,6.6c0,0.2-0.1,0.3-0.3,0.3c-0.2,0-0.3-0.2-0.2-0.3c0-0.1,0.1-0.2,0.2-0.2C9.6,6.3,9.7,6.5,9.7,6.6z"/>
		<path class="st0" d="M5.2,13.6c0,0.2-0.1,0.3-0.3,0.3c0,0,0,0,0,0c-0.2,0-0.3-0.1-0.3-0.3c0-0.2,0.1-0.3,0.3-0.3
			C5.1,13.3,5.2,13.4,5.2,13.6C5.2,13.6,5.2,13.6,5.2,13.6z"/>
		<path class="st0" d="M5.3,9c0,0.2-0.1,0.3-0.3,0.3c0,0,0,0,0,0C4.9,9.3,4.7,9.2,4.7,9c0,0,0,0,0,0c0-0.2,0.1-0.3,0.3-0.3
			c0,0,0,0,0,0C5.2,8.7,5.3,8.8,5.3,9C5.3,9,5.3,9,5.3,9z"/>
		<path class="st0" d="M4.2,11.1c0,0.2-0.1,0.3-0.2,0.3c-0.2,0-0.3-0.1-0.3-0.2c0,0,0-0.1,0-0.1c0-0.2,0.2-0.3,0.3-0.2
			C4.1,10.9,4.2,11,4.2,11.1z"/>
		<path class="st0" d="M1.5,15.2c0,0.2-0.1,0.3-0.3,0.3c0,0,0,0,0,0c-0.2,0-0.3-0.1-0.3-0.3c0,0,0,0,0,0c0-0.2,0.1-0.3,0.3-0.3
			C1.3,15,1.4,15.1,1.5,15.2z"/>
		<path class="st0" d="M1.8,14.5c0,0.2-0.1,0.3-0.3,0.3c-0.2,0-0.3-0.1-0.3-0.3c0,0,0,0,0,0c0-0.2,0.1-0.3,0.3-0.3
			C1.7,14.2,1.8,14.3,1.8,14.5L1.8,14.5z"/>
		<path class="st0" d="M8.9,6.9c0,0.2-0.1,0.3-0.3,0.3c-0.2,0-0.3-0.1-0.3-0.3c0,0,0,0,0,0c0-0.2,0.1-0.3,0.3-0.3
			C8.8,6.6,8.9,6.8,8.9,6.9C8.9,6.9,8.9,6.9,8.9,6.9z"/>
		<path class="st0" d="M1.1,18.8c0,0.2-0.1,0.3-0.3,0.3S0.5,19,0.5,18.8l0,0c0-0.2,0.1-0.3,0.3-0.3c0,0,0,0,0,0
			C1,18.5,1.1,18.7,1.1,18.8L1.1,18.8z"/>
		<path class="st0" d="M6,8.5c0,0.2-0.1,0.3-0.3,0.3c0,0,0,0,0,0c-0.2,0-0.3-0.1-0.3-0.3c0-0.2,0.1-0.3,0.3-0.3c0,0,0,0,0,0
			C5.9,8.2,6,8.3,6,8.5C6,8.5,6,8.5,6,8.5z"/>
		<path class="st0" d="M2.9,11.3c0,0.2-0.1,0.3-0.3,0.3c0,0,0,0,0,0c-0.2,0-0.3-0.1-0.3-0.3c0-0.1,0.1-0.3,0.2-0.3c0,0,0,0,0,0
			C2.8,11,2.9,11.1,2.9,11.3C2.9,11.3,2.9,11.3,2.9,11.3z"/>
		<path class="st0" d="M1,20.5c0,0.2-0.1,0.3-0.3,0.3c0,0,0,0,0,0c-0.2,0-0.3-0.1-0.3-0.3c0,0,0,0,0,0c0-0.2,0.1-0.3,0.3-0.3
			c0,0,0,0,0,0C0.9,20.2,1,20.3,1,20.5C1,20.5,1,20.5,1,20.5z"/>
		<path class="st0" d="M1,18.3c-0.2,0-0.3-0.2-0.3-0.3c0-0.2,0.1-0.3,0.3-0.3c0,0,0,0,0,0c0.2,0,0.3,0.1,0.3,0.3c0,0,0,0,0,0
			C1.3,18.2,1.2,18.3,1,18.3C1,18.3,1,18.3,1,18.3z"/>
		<path class="st0" d="M4.6,11.2c0.2,0,0.3,0.1,0.3,0.3c0,0.2-0.1,0.3-0.3,0.3c-0.2,0-0.3-0.1-0.3-0.3C4.3,11.3,4.4,11.2,4.6,11.2z"
			/>
		<path class="st0" d="M4,11.8c0.2,0,0.3,0.1,0.3,0.3c0,0,0,0,0,0c0,0.2-0.1,0.3-0.3,0.3c-0.2,0-0.3-0.1-0.3-0.3
			C3.7,12,3.8,11.8,4,11.8z"/>
		<path class="st0" d="M2.8,12.7c-0.2,0-0.3-0.1-0.3-0.3c0,0,0,0,0,0c0-0.1,0.1-0.3,0.3-0.3c0,0,0,0,0,0c0.2,0,0.3,0.1,0.3,0.3
			c0,0,0,0,0,0C3.1,12.5,3,12.7,2.8,12.7C2.8,12.7,2.8,12.7,2.8,12.7z"/>
		<path class="st0" d="M5.1,9.7c0.2,0,0.3,0.1,0.3,0.3c0,0,0,0,0,0c0,0.2-0.1,0.3-0.3,0.3c-0.2,0-0.3-0.1-0.3-0.3
			C4.8,9.8,4.9,9.7,5.1,9.7L5.1,9.7z"/>
		<path class="st0" d="M6,12c0.2,0,0.3,0.1,0.3,0.3c0,0.2-0.1,0.3-0.3,0.3c-0.2,0-0.3-0.1-0.3-0.3C5.7,12.1,5.8,12,6,12
			C6,12,6,12,6,12z"/>
		<path class="st0" d="M4.4,9.2c0.2,0,0.3,0.1,0.3,0.3c0,0.2-0.1,0.3-0.3,0.3c0,0,0,0,0,0c-0.2,0-0.3-0.1-0.3-0.3c0,0,0,0,0,0
			C4.1,9.4,4.2,9.2,4.4,9.2z"/>
		<path class="st0" d="M2.1,12.2c-0.1,0-0.3-0.1-0.3-0.2c0-0.1,0.1-0.3,0.3-0.3c0,0,0,0,0,0c0.1,0,0.3,0.1,0.3,0.3
			C2.4,12.1,2.3,12.2,2.1,12.2z"/>
		<path class="st0" d="M0.9,16.8c0,0.2-0.1,0.3-0.3,0.3c-0.2,0-0.3-0.1-0.3-0.3c0-0.2,0.1-0.3,0.3-0.3c0,0,0,0,0,0
			C0.7,16.5,0.9,16.7,0.9,16.8L0.9,16.8z"/>
		<path class="st0" d="M4,13.9c0,0.1-0.1,0.3-0.3,0.3c0,0,0,0,0,0c-0.2,0-0.3-0.1-0.3-0.3c0-0.2,0.2-0.3,0.3-0.2
			C3.9,13.6,4,13.7,4,13.9L4,13.9z"/>
		<path class="st0" d="M1.8,16.4c0,0.1-0.1,0.3-0.3,0.3c-0.1,0-0.3-0.1-0.3-0.3s0.1-0.3,0.3-0.3C1.7,16.1,1.8,16.3,1.8,16.4
			C1.8,16.4,1.8,16.4,1.8,16.4z"/>
		<path class="st0" d="M6.8,6.7c0-0.1,0.1-0.3,0.2-0.3s0.3,0.1,0.3,0.2c0,0,0,0.1,0,0.1C7.3,6.9,7.2,7,7.1,7c0,0,0,0,0,0
			C6.9,7,6.8,6.9,6.8,6.7C6.8,6.7,6.8,6.7,6.8,6.7z"/>
		<path class="st0" d="M10.4,6.4c0,0.1-0.1,0.3-0.2,0.3c0,0,0,0,0,0c-0.1,0-0.3-0.1-0.3-0.2c0,0,0,0,0,0c0-0.1,0.1-0.3,0.2-0.3
			S10.4,6.1,10.4,6.4C10.5,6.3,10.5,6.4,10.4,6.4L10.4,6.4z"/>
		<path class="st0" d="M6.6,7.1c0,0.1-0.1,0.3-0.3,0.3S6.1,7.3,6.1,7.1c0-0.1,0.1-0.3,0.3-0.3h0C6.5,6.9,6.6,7,6.6,7.1z"/>
		<path class="st0" d="M8.1,6.4c0,0.1-0.1,0.2-0.2,0.3c0,0,0,0,0,0c-0.1,0-0.3-0.1-0.3-0.2c0,0,0,0,0,0c0-0.1,0.1-0.3,0.2-0.3
			c0.1,0,0.3,0.1,0.3,0.2C8.1,6.3,8.1,6.3,8.1,6.4L8.1,6.4z"/>
		<path class="st0" d="M8.9,6.1c0,0.1-0.1,0.3-0.2,0.3c-0.1,0-0.3-0.1-0.3-0.2c0,0,0-0.1,0-0.1c0-0.1,0.1-0.2,0.2-0.2
			C8.7,5.8,8.8,5.9,8.9,6.1z"/>
		<path class="st0" d="M8.9,7.8C8.9,7.9,8.8,8,8.6,8C8.5,8,8.4,7.9,8.4,7.7c0-0.1,0.1-0.2,0.2-0.2C8.8,7.5,8.9,7.6,8.9,7.8
			C8.9,7.8,8.9,7.8,8.9,7.8z"/>
		<path class="st0" d="M1.9,12.7c0,0.1-0.1,0.2-0.2,0.2c-0.1,0-0.2-0.1-0.2-0.2c0,0,0,0,0,0c0-0.1,0.1-0.2,0.2-0.2
			C1.8,12.4,1.9,12.5,1.9,12.7z"/>
		<path class="st0" d="M5.9,7.6c0,0.1-0.1,0.2-0.2,0.2c0,0,0,0,0,0c-0.1,0-0.2-0.1-0.2-0.2c0-0.1,0.1-0.2,0.2-0.2c0,0,0,0,0,0
			C5.8,7.3,5.9,7.4,5.9,7.6z"/>
		<path class="st0" d="M0.8,21.7c-0.1,0-0.2-0.1-0.2-0.2c0,0,0,0,0,0c0-0.1,0.1-0.2,0.2-0.2c0,0,0,0,0,0c0.1,0,0.2,0.1,0.2,0.2
			c0,0,0,0,0,0C1,21.6,0.9,21.7,0.8,21.7z"/>
		<path class="st0" d="M9.6,5.8C9.6,5.9,9.5,6,9.4,6C9.3,6,9.1,5.9,9.1,5.8s0.1-0.2,0.2-0.2C9.5,5.5,9.6,5.6,9.6,5.8
			C9.6,5.8,9.6,5.8,9.6,5.8z"/>
		<path class="st0" d="M4.7,8c0-0.1,0.1-0.2,0.3-0.2c0,0,0,0,0,0c0.1,0,0.2,0.1,0.2,0.2c0,0.1-0.1,0.2-0.2,0.2
			C4.9,8.3,4.8,8.2,4.7,8L4.7,8z"/>
		<path class="st0" d="M2.1,15.6c0,0.1-0.1,0.2-0.2,0.2c-0.1,0-0.2-0.1-0.2-0.2c0,0,0,0,0,0c0-0.1,0.1-0.2,0.2-0.2c0,0,0,0,0,0
			C2,15.4,2.1,15.5,2.1,15.6C2.1,15.6,2.1,15.6,2.1,15.6z"/>
		<path class="st0" d="M0.6,17.6c0,0.1-0.1,0.2-0.2,0.2c-0.1,0-0.2-0.1-0.2-0.2c0-0.1,0.1-0.2,0.2-0.2C0.5,17.4,0.6,17.5,0.6,17.6z"
			/>
		<path class="st0" d="M10.2,5.7c-0.1,0-0.2-0.1-0.2-0.2c0,0,0,0,0,0c0-0.1,0.1-0.2,0.2-0.2c0,0,0,0,0,0c0.1,0,0.2,0.1,0.2,0.2
			C10.4,5.7,10.3,5.7,10.2,5.7C10.2,5.7,10.2,5.7,10.2,5.7z"/>
		<path class="st0" d="M8.1,9c0,0.1-0.1,0.2-0.2,0.2C7.8,9.2,7.7,9.1,7.7,9c0-0.1,0.1-0.2,0.2-0.2C8,8.8,8.1,8.9,8.1,9z"/>
		<path class="st0" d="M1.4,13.4c0,0.1-0.1,0.2-0.1,0.2c0,0,0,0,0,0c-0.1,0-0.2-0.1-0.2-0.2c0-0.1,0.1-0.2,0.2-0.2c0,0,0,0,0,0
			C1.3,13.2,1.4,13.2,1.4,13.4C1.4,13.3,1.4,13.3,1.4,13.4z"/>
		<path class="st0" d="M4.3,8.4c0.1,0,0.2,0.1,0.2,0.2c0,0.1-0.1,0.2-0.2,0.2l0,0c-0.1,0-0.2-0.1-0.2-0.2C4.1,8.5,4.2,8.4,4.3,8.4
			C4.3,8.4,4.3,8.4,4.3,8.4z"/>
		<path class="st0" d="M11,6.3c-0.1,0-0.2-0.1-0.2-0.2C10.8,6.1,10.9,6,11,6c0,0,0,0,0,0c0.1,0,0.2,0.1,0.2,0.2
			C11.2,6.3,11.1,6.3,11,6.3z"/>
		<path class="st0" d="M7.4,10.3c0,0.1-0.1,0.2-0.2,0.2c-0.1,0-0.2-0.1-0.2-0.2c0-0.1,0.1-0.2,0.2-0.2C7.3,10.2,7.4,10.2,7.4,10.3
			C7.4,10.3,7.4,10.3,7.4,10.3z"/>
		<path class="st0" d="M6.1,13.5C6,13.5,6,13.4,6,13.3c0-0.1,0.1-0.2,0.2-0.2c0.1,0,0.2,0.1,0.2,0.2c0,0,0,0,0,0
			C6.3,13.4,6.2,13.5,6.1,13.5C6.1,13.5,6.1,13.5,6.1,13.5z"/>
		<path class="st0" d="M6.6,11.9c-0.1,0-0.2-0.1-0.2-0.2s0.1-0.2,0.2-0.2c0.1,0,0.2,0.1,0.2,0.2l0,0C6.8,11.9,6.7,11.9,6.6,11.9
			L6.6,11.9z"/>
		<path class="st0" d="M1.1,22.4c0,0.1-0.1,0.1-0.1,0.2c0,0,0,0,0,0c-0.1,0-0.1-0.1-0.1-0.1c0,0,0,0,0,0c0-0.1,0.1-0.2,0.2-0.2
			c0,0,0,0,0.1,0C1.1,22.2,1.1,22.3,1.1,22.4z"/>
		<path class="st0" d="M2.2,15C2.1,15,2,15,2,14.9c0,0,0,0,0,0c0-0.1,0.1-0.2,0.2-0.2c0.1,0,0.1,0.1,0.2,0.1C2.3,14.9,2.3,15,2.2,15
			z"/>
		<path class="st0" d="M4.4,14.4c-0.1,0-0.1-0.1-0.1-0.1c0-0.1,0-0.2,0.1-0.2c0.1,0,0.2,0,0.2,0.1c0,0,0,0.1,0,0.1
			C4.6,14.3,4.5,14.4,4.4,14.4C4.4,14.4,4.4,14.4,4.4,14.4z"/>
		<path class="st0" d="M11,5.2c0.1,0,0.1,0,0.1,0.1c0,0,0,0,0,0c0,0.1-0.1,0.1-0.1,0.1c0,0,0,0,0,0c-0.1,0-0.1-0.1-0.1-0.1
			C10.9,5.3,10.9,5.2,11,5.2z"/>
		<path class="st0" d="M3.7,9.2c-0.1,0-0.1-0.1-0.1-0.1C3.5,9,3.6,8.9,3.7,9S3.8,9,3.8,9.1c0,0,0,0,0,0C3.8,9.2,3.7,9.2,3.7,9.2z"/>
		<path class="st0" d="M0.3,18.4c0,0.1-0.1,0.1-0.1,0.1c0,0,0,0,0,0c-0.1,0-0.1-0.1-0.1-0.1c0-0.1,0-0.1,0.1-0.1c0,0,0,0,0,0
			C0.3,18.3,0.3,18.4,0.3,18.4C0.3,18.4,0.3,18.4,0.3,18.4z"/>
		<path class="st0" d="M0.8,14.2c-0.1,0-0.1-0.1-0.1-0.1C0.7,14,0.8,14,0.8,14c0.1,0,0.1,0.1,0.1,0.1C0.9,14.2,0.9,14.2,0.8,14.2z"
			/>
		<path class="st0" d="M5.7,14c0,0,0,0.1-0.1,0.1c0,0,0,0,0,0c-0.1,0-0.1,0-0.1-0.1C5.5,13.9,5.5,13.9,5.7,14
			C5.6,13.9,5.7,13.9,5.7,14C5.7,14,5.7,14,5.7,14z"/>
		<path class="st0" d="M9.5,7.5c0,0.1,0,0.1-0.1,0.1c0,0-0.1,0-0.1-0.1c0,0,0,0,0,0c0,0,0-0.1,0.1-0.1c0,0,0,0,0,0
			C9.5,7.4,9.5,7.4,9.5,7.5C9.5,7.5,9.5,7.5,9.5,7.5z"/>
		<path class="st0" d="M2.7,14.1c0,0,0,0.1-0.1,0.1c-0.1,0-0.1,0-0.1-0.1c0,0,0,0,0,0c0-0.1,0-0.1,0.1-0.1
			C2.6,14.1,2.7,14.1,2.7,14.1z"/>
		<path class="st0" d="M0.1,19.3C0,19.3,0,19.3,0.1,19.3c-0.1-0.1-0.1-0.2,0-0.2C0.1,19.2,0.2,19.2,0.1,19.3L0.1,19.3
			C0.2,19.3,0.1,19.3,0.1,19.3z"/>
		<path class="st0" d="M11.9,5.2C11.9,5.3,11.9,5.3,11.9,5.2c-0.1,0.1-0.2,0-0.2,0c0,0,0,0,0,0c0,0,0-0.1,0.1-0.1
			C11.8,5.1,11.9,5.1,11.9,5.2C11.9,5.2,11.9,5.2,11.9,5.2L11.9,5.2z"/>
		<path class="st0" d="M3,9.6C3.1,9.6,3.1,9.6,3,9.6c0.1,0.1,0,0.2,0,0.2S3,9.7,3,9.6C3,9.6,3,9.6,3,9.6C3,9.6,3,9.6,3,9.6z"/>
		<path class="st0" d="M11.9,6C11.9,6,11.8,6.1,11.9,6c-0.1,0.1-0.1,0-0.1,0c0,0,0,0,0,0C11.8,6,11.8,6,11.9,6C11.8,6,11.9,6,11.9,6
			z"/>
		<path class="st0" d="M0.5,14.8C0.5,14.8,0.5,14.8,0.5,14.8 M0.5,14.9C0.4,14.9,0.4,14.9,0.5,14.9C0.4,14.8,0.4,14.8,0.5,14.9
			c-0.1-0.1,0-0.1,0-0.1L0.5,14.9z"/>
		<path class="st0" d="M1.2,23.2C1.2,23.2,1.2,23.3,1.2,23.2C1.2,23.3,1.1,23.2,1.2,23.2C1.1,23.2,1.1,23.2,1.2,23.2 M1.2,23.1
			C1.2,23.1,1.2,23.2,1.2,23.1L1.2,23.1z"/>
		<path class="st0" d="M1.4,23.9L1.4,23.9L1.4,23.9z"/>
		<path class="st0" d="M2.5,10.2L2.5,10.2L2.5,10.2L2.5,10.2z"/>
		<path class="st0" d="M12.6,5.1L12.6,5.1z"/>
	</g>
</g>
</svg>
